<svg xmlns="http://www.w3.org/2000/svg" viewBox="0 0 442.82 76.61" width="442.82" height="76.61"><title>accuform</title><path fill="#0067ac" d="M55.15 59.32l23.64-25.93h25.79V74H79V59.31zm-35.45-11H0V74h31.08L75.5 25.6h29.05V0H64.17zm130.38-10.86H138l6.09-12zm2.33 4.54l2.59 4.77a3 3 0 0 1 .5 1.66c-.06.86-.94 1.26-1.77 1.36v.8h13.56v-.8c-1.83-.3-2.55-1.61-3.32-3l-14.16-25.88a4.26 4.26 0 0 1-.5-1.61c0-.8.83-1.26 1.6-1.46V17h-13.06v.8a1.82 1.82 0 0 1 1.55 1.71 3.82 3.82 0 0 1-.66 1.86l-13.57 25.85c-.72 1.36-1.22 2.27-2.93 2.57v.8h12.18v-.8c-.78-.2-1.77-.6-1.77-1.51a3.78 3.78 0 0 1 .5-1.51l2.48-4.77zm49.99 4.82l-.61.4a1.9 1.9 0 0 0-1.05-.4c-1.66 0-7 4.38-14.84 4.38-9.69 0-18.33-4.68-18.33-14.35s8.64-14.34 18.33-14.34c8.47 0 12.46 4.23 14.73 4.38a1.88 1.88 0 0 0 1.16-.41l.61.41-4.54 6-.61-.4c0-.2.11-.45.11-.65 0-2.46-8.19-4.18-11.18-4.18-5.7 0-11.13 3.67-11.13 9.16S180.47 46 186.18 46a19.17 19.17 0 0 0 8.19-1.76c.89-.4 3-1.26 3-2.37 0-.2-.11-.45-.11-.65l.61-.4zm38.14 0l-.61.4a1.9 1.9 0 0 0-1.05-.4c-1.66 0-7 4.38-14.84 4.38-9.69 0-18.33-4.68-18.33-14.35s8.65-14.34 18.29-14.34c8.47 0 12.46 4.23 14.73 4.38a1.88 1.88 0 0 0 1.16-.41l.61.41-4.54 6-.61-.4c0-.2.11-.45.11-.65 0-2.46-8.19-4.18-11.18-4.18-5.7 0-11.13 3.67-11.13 9.16S218.62 46 224.32 46a19.16 19.16 0 0 0 8.19-1.76c.89-.4 3-1.26 3-2.37 0-.2-.11-.45-.11-.65l.61-.4zm37.38-23.05c-1.05.3-1.77.8-1.77 1.86v14.55c0 9.06-6.31 11-15.28 11-8.8 0-15.34-1.86-15.34-11V25.64c0-1.06-.66-1.56-1.71-1.86v-.65h10.74v.65c-1.05.3-1.71.8-1.71 1.86v13.23c0 5.39 2.49 7.15 8.36 7.15s8.36-1.86 8.36-7.15V25.64c0-1.06-.72-1.56-1.72-1.86l-.06-.65h10.13zm12.23 24.31c0 1.06.72 1.56 1.72 1.87v.65h-10.69v-.65c1.05-.26 1.71-.81 1.71-1.87v-22.5c0-1.06-.66-1.56-1.71-1.81v-.65h27.13a2 2 0 0 0 2-1.61h.72v8.15h-.72a2 2 0 0 0-2-1.56h-18.16v6h11.4a2 2 0 0 0 2.05-1.56h.72v8h-.78a1.93 1.93 0 0 0-2-1.56h-11.4zm51.38-11.22c0 5.39-4.48 9.16-10.3 9.16s-10.3-3.82-10.3-9.16 4.43-9.16 10.3-9.16 10.3 3.77 10.3 9.16zm7.42 0c0-9.31-8.19-14.34-17.71-14.34s-17.77 5-17.77 14.34 8.25 14.35 17.77 14.35 17.7-5.14 17.7-14.35zm12.28-2.57V28.1h10.91c2.54 0 5.54.1 5.54 3.12 0 2.87-3 3.07-5.54 3.07zm0 5h7.26l6.09 7.85a2.79 2.79 0 0 1 .83 1.76c-.05.6-.83.86-1.38 1v.65h12.67v-.65c-2.1-.3-3.43-2.21-4.59-3.68L376.35 39c4.87-1 8.53-3 8.53-7.85 0-7.15-6.48-8.05-12.79-8.05h-19.82v.65c1 .25 1.71.75 1.71 1.81v22.5c0 1.06-.66 1.61-1.71 1.87v.65H363v-.65c-1-.3-1.72-.81-1.72-1.87zm37.04-6.76v15.55c0 1.06.72 1.56 1.78 1.87v.65H390v-.65c1.05-.26 1.72-.81 1.72-1.87v-22.5c0-1-.67-1.56-1.72-1.81v-.65h12.79v.65a1.55 1.55 0 0 0-1.28 1.36 4.59 4.59 0 0 0 .94 2.47L410 39.17l7.58-11.37a6.49 6.49 0 0 0 1.28-2.52 1.42 1.42 0 0 0-1.28-1.51v-.65H430v.65c-1.05.25-1.77.8-1.77 1.81v22.5c0 1.06.72 1.56 1.77 1.87v.65h-10.74v-.65c1.05-.3 1.77-.81 1.77-1.87V32.53l-11.68 17.21zm38.43 10.55a4 4 0 0 0-1.47 1.46 4.39 4.39 0 0 0-.45 1 4.14 4.14 0 0 0-.14 1.09 4 4 0 0 0 1.17 2.85 4.26 4.26 0 0 0 1.34.92 4 4 0 0 0 1.57.32 4.1 4.1 0 0 0 2.9-1.2 3.77 3.77 0 0 0 .9-1.31 4.07 4.07 0 0 0 .31-1.58 4.13 4.13 0 0 0-.3-1.56 3.88 3.88 0 0 0-.86-1.31 4.09 4.09 0 0 0-1.34-.91 4.19 4.19 0 0 0-3.62.2m3.35.43a3.55 3.55 0 0 1 1.84 1.87 3.63 3.63 0 0 1 .24 1.34 3.2 3.2 0 0 1-.26 1.27 3.27 3.27 0 0 1-.74 1.07 3.63 3.63 0 0 1-1.14.74 3.31 3.31 0 0 1-2.59 0 3.48 3.48 0 0 1-1.12-.77 3.24 3.24 0 0 1-.73-1.09 3.4 3.4 0 0 1-.25-1.29 3.33 3.33 0 0 1 .27-1.3 3.57 3.57 0 0 1 .77-1.14 3.14 3.14 0 0 1 1.08-.72 3.38 3.38 0 0 1 1.3-.25 3.42 3.42 0 0 1 1.33.26m-3 5.35h1.1V47h.55l.86 1.86h1.23l-1-2a1.33 1.33 0 0 0 .73-.43 1.16 1.16 0 0 0 .26-.77 1.1 1.1 0 0 0-.49-1 2.63 2.63 0 0 0-1.46-.33H437zm1.56-3.82a1.34 1.34 0 0 1 .75.16.58.58 0 0 1 .24.51.54.54 0 0 1-.23.48 1.29 1.29 0 0 1-.71.15h-.55V45zM123.29 74.54V64.36h2.55v10.18zm6.92 0V64.36h3.13l5.09 7.18v-7.18h2.45v10.18h-3.1l-5.14-7.25v7.25zm15 0V64.36h8.68v2.06h-6.13v2h5.61v2.06h-5.61v4.1zm11.67-5.09a4.94 4.94 0 0 1 1.66-3.9 7.49 7.49 0 0 1 8.89 0 5.43 5.43 0 0 1 0 7.8 7.51 7.51 0 0 1-8.89 0 4.93 4.93 0 0 1-1.66-3.9zm6.12 3.26a3.27 3.27 0 0 0 2.41-.87 3.7 3.7 0 0 0 0-4.79 3.76 3.76 0 0 0-4.82 0 3.68 3.68 0 0 0 0 4.78 3.29 3.29 0 0 0 2.41.88zm9.88 1.83V64.36h6.26a5.34 5.34 0 0 1 3 .67 2.35 2.35 0 0 1 1 2.07 2.83 2.83 0 0 1-.45 1.58 2.52 2.52 0 0 1-1.24 1 2 2 0 0 1 .95.7 3.13 3.13 0 0 1 .32 1.47v.28a4.44 4.44 0 0 0 .54 2.42h-2.86a1.29 1.29 0 0 1-.15-.36 1.72 1.72 0 0 1-.05-.43v-.69a3.14 3.14 0 0 0-.36-1.84 1.8 1.8 0 0 0-1.41-.43h-2.95v3.75zm2.55-5.84h2.88a3.32 3.32 0 0 0 1.61-.28 1 1 0 0 0 .46-.92.91.91 0 0 0-.43-.87 4 4 0 0 0-1.75-.25h-2.77zM187 74.54V64.36h3.3l3.28 7.29 3.37-7.29h3.27v10.18h-2.45v-6.8l-3.16 6.79h-2.13l-3-6.91v6.91zm16.92 0v-2.45h2.64v1.66a4.35 4.35 0 0 1-.24 1.51 4.84 4.84 0 0 1-.81 1.36h-1.69a5.85 5.85 0 0 0 .74-1.12 2.15 2.15 0 0 0 .22-.91zm10.22 0V64.36h6a3.94 3.94 0 0 1 2.77.92 3.76 3.76 0 0 1 0 5.1 4 4 0 0 1-2.77.91h-3.44v3.26zm2.55-5.25H219a3.58 3.58 0 0 0 1.8-.33 1.2 1.2 0 0 0 .52-1.1 1.27 1.27 0 0 0-.45-1.11 3.2 3.2 0 0 0-1.71-.32h-2.46zm10.82 5.25V64.36h6.26a5.34 5.34 0 0 1 3 .67 2.35 2.35 0 0 1 1 2.07 2.83 2.83 0 0 1-.45 1.58 2.52 2.52 0 0 1-1.24 1 2 2 0 0 1 .95.7 3.13 3.13 0 0 1 .32 1.47v.28a4.43 4.43 0 0 0 .54 2.42H235a1.26 1.26 0 0 1-.16-.36 1.73 1.73 0 0 1-.05-.43v-.69a3.14 3.14 0 0 0-.36-1.84 1.8 1.8 0 0 0-1.42-.43h-2.95v3.75zm2.55-5.84H233a3.32 3.32 0 0 0 1.61-.28 1 1 0 0 0 .46-.92.91.91 0 0 0-.43-.87 4 4 0 0 0-1.75-.25h-2.77zm11.01.75a4.94 4.94 0 0 1 1.66-3.9 7.49 7.49 0 0 1 8.89 0 5.43 5.43 0 0 1 0 7.8 7.51 7.51 0 0 1-8.89 0 4.93 4.93 0 0 1-1.66-3.9zm6.11 3.26a3.27 3.27 0 0 0 2.41-.87 3.7 3.7 0 0 0 0-4.79 3.76 3.76 0 0 0-4.82 0 3.68 3.68 0 0 0 0 4.78 3.29 3.29 0 0 0 2.41.88zm14.69-6.29v8.12h-2.53v-8.12h-3.48v-2.06h9.5v2.06zm6.6 8.12V64.36h9v2.06H271v1.72h5.78v2.07H271v2.19h6.49v2.14zm24.17-3.94a4.18 4.18 0 0 1-1.8 3.06 6.77 6.77 0 0 1-4.07 1.15 6.5 6.5 0 0 1-4.45-1.46 5.42 5.42 0 0 1 0-7.8 6.5 6.5 0 0 1 4.45-1.46 6.94 6.94 0 0 1 4 1.1 3.92 3.92 0 0 1 1.79 2.88h-2.78a2.3 2.3 0 0 0-1-1.41 3.8 3.8 0 0 0-2-.47 3.28 3.28 0 0 0-2.41.88 3.68 3.68 0 0 0 0 4.78 3.29 3.29 0 0 0 2.42.87 3.69 3.69 0 0 0 2.14-.56 2.12 2.12 0 0 0 .93-1.55zm8.56-4.18v8.12h-2.53v-8.12h-3.48v-2.06h9.5v2.06zm3.86 8.12v-2.45h2.64v1.66a4.34 4.34 0 0 1-.24 1.51 4.82 4.82 0 0 1-.81 1.36H305a5.8 5.8 0 0 0 .74-1.12 2.15 2.15 0 0 0 .22-.91zm18.32 0l-.66-.7a5.11 5.11 0 0 1-1.6.72 7.65 7.65 0 0 1-2 .25 4.9 4.9 0 0 1-3-.89 2.66 2.66 0 0 1-.54-4 5.76 5.76 0 0 1 2-1.41 2.81 2.81 0 0 1-.76-.91 2.31 2.31 0 0 1-.27-1.08 1.9 1.9 0 0 1 .84-1.6 3.65 3.65 0 0 1 2.21-.62 3.88 3.88 0 0 1 2.31.6 2 2 0 0 1 .83 1.67 2.22 2.22 0 0 1-.41 1.35A3.89 3.89 0 0 1 321 69l1.8 1.78a1.62 1.62 0 0 0 .24-.39 1.73 1.73 0 0 0 .12-.42h2.48a7 7 0 0 1-.51 1.38 4.57 4.57 0 0 1-.72 1l2.14 2.13zm-2.13-2.2L319 70a3.38 3.38 0 0 0-1.05.68 1.11 1.11 0 0 0-.37.77 1.17 1.17 0 0 0 .53 1 2.26 2.26 0 0 0 1.36.38 3.4 3.4 0 0 0 1.79-.5zm-1.69-4.73a2 2 0 0 0 .73-.4.71.71 0 0 0 .23-.53.57.57 0 0 0-.2-.46.86.86 0 0 0-.56-.17 1 1 0 0 0-.6.17.52.52 0 0 0-.23.43.81.81 0 0 0 .16.45 2.69 2.69 0 0 0 .47.51zm13.68 6.93V64.36h3.3l3.28 7.29 3.37-7.29h3.27v10.18H344v-6.8l-3.16 6.79h-2.13l-3-6.91v6.91zm17.01-5.09a4.94 4.94 0 0 1 1.66-3.9 7.49 7.49 0 0 1 8.89 0 5.43 5.43 0 0 1 0 7.8 7.51 7.51 0 0 1-8.89 0 4.93 4.93 0 0 1-1.66-3.9zm6.11 3.26a3.27 3.27 0 0 0 2.41-.87 3.7 3.7 0 0 0 0-4.79 3.76 3.76 0 0 0-4.82 0 3.68 3.68 0 0 0 0 4.78 3.29 3.29 0 0 0 2.41.88zM371 66.42v8.12h-2.53v-8.12H365v-2.06h9.5v2.06zm6.68 8.12V64.36h2.55v10.18zm9.63 0l-4.43-10.18h2.81l2.93 7.3 3-7.3h2.79l-4.51 10.18zm7.81 0l4.83-10.18h2.45l4.6 10.18h-2.8l-.93-2.15h-4.48l-.92 2.15zm4.54-4.21h2.69L401 67.18zm14.11-3.91v8.12h-2.53v-8.12h-3.48v-2.06h9.5v2.06zm6.6 8.12V64.36h9v2.06h-6.49v1.72h5.78v2.07h-5.78v2.19h6.49v2.14z"/></svg>