<svg xmlns="http://www.w3.org/2000/svg" viewBox="0 0 344.09 100.23">
  <title>capabilities</title>
  <g id="Layer_2" data-name="Layer 2">
    <g id="Layer_2-2" data-name="Layer 2">
      <path d="M342,69.54a4.64,4.64,0,0,0-3.56.62q-3.2,2.22-8.44,9.26l-.38.51a53,53,0,0,0,3.52-17c.5-4.36-1.33-18.65-8.73-27.92-6.78-9.53-16.32-13.17-18.57-13.69a19.75,19.75,0,0,0-4.93-.8h0c-2.36,0-3.94.76-4.7,2.27a3.8,3.8,0,0,0,.5,4.1,6.66,6.66,0,0,0,3.79,2.34c.23.07.54.14.94.23a25.4,25.4,0,0,1,5.07,1.63l.33.12c4.88,1.45,15.39,11.25,17.28,24l0,.17c2.77,13.29-3.93,25.08-4,25.2l-.14.25c-.16.33-.34.66-.5,1A102.85,102.85,0,0,1,316.26,69q-.43-2.42-3.39-2.88-3.2-.5-4.49,1a2.45,2.45,0,0,0-.49,1.53q-.08,2.9,3.41,13.41,1.9,5.68,5.9,16.52a2.3,2.3,0,0,0,2,1.61,5.57,5.57,0,0,0,3.38-1,11.65,11.65,0,0,0,2.57-1.77,12.44,12.44,0,0,0,1.27-2q.33-.72.51-1.07.64-1,7.17-9.46,7.24-9.51,9.53-12.25a1.52,1.52,0,0,0,.48-1.1Q344.1,69.87,342,69.54Z" fill="#8ec640"/>
      <g>
        <path d="M20.45,6.66q.2,1.4-1.75,2.15A21.78,21.78,0,0,0,11,14.23q-4.56,4.66-4.56,8.92,0,6.11,9.92,12.63,1.05.7,2.41,1.55a2.92,2.92,0,0,1,1.4,2.15A1.42,1.42,0,0,1,19,41.19l-.68.23a3.26,3.26,0,0,1-1,.18,3.1,3.1,0,0,1-1.4-.3A36.79,36.79,0,0,1,5.26,33.37Q0,27.56,0,21.5A15.53,15.53,0,0,1,4.56,10.82,26.56,26.56,0,0,1,15.13,4a2.14,2.14,0,0,1,.75-.15,6.49,6.49,0,0,1,2.61.65Q20.29,5.36,20.45,6.66Z" fill="#283272"/>
        <path d="M49.16,32.42Q49.51,35,46.75,35a4.45,4.45,0,0,1-3.86-1.65q-.45-.55-2.1-6.67A94,94,0,0,1,28.21,29q-.35.7-3.81,9.32a9.88,9.88,0,0,1-.85,1.7,2.69,2.69,0,0,1-1.3.85,5,5,0,0,1-1.7.35q-1.8,0-1.9-1.45-.2-3.56,6.16-18.24,6-14,7.22-14.78a7.48,7.48,0,0,1,4.16-1.2,3.84,3.84,0,0,1,3.06,1.1q2.25,2.51,6,12.58Q48.71,28.66,49.16,32.42ZM39,20.75q-1.4-4-3.56-9.37-1.55,2.36-5.06,11.53A34.38,34.38,0,0,1,39,20.75Z" fill="#283272"/>
        <path d="M82.83,15.08a2.69,2.69,0,0,1-.15,1.15q-1.3,3.26-8.57,7.07a56.27,56.27,0,0,1-12.68,4.86v3.46a19.85,19.85,0,0,1-.1,4,1.09,1.09,0,0,1-1.2.9,4.92,4.92,0,0,1-2.61-1.08,4.47,4.47,0,0,1-1.9-2.28,11.21,11.21,0,0,1-.35-1.85,61.64,61.64,0,0,1-.35-7.57,107.68,107.68,0,0,1,.5-11q.5-5.46,1.35-5.61a41.25,41.25,0,0,1,7.37-.7A28.1,28.1,0,0,1,77.22,9.62Q82.48,12.38,82.83,15.08Zm-6.31-.85A23,23,0,0,0,65,11.63q-1,0-3.21.1-.15,4.81-.35,11a74.86,74.86,0,0,0,9.12-4.11Q76.27,15.63,76.52,14.23Z" fill="#283272"/>
        <path d="M112.15,32.42Q112.5,35,109.74,35a4.45,4.45,0,0,1-3.86-1.65q-.45-.55-2.1-6.67A94,94,0,0,1,91.2,29q-.35.7-3.81,9.32a9.88,9.88,0,0,1-.85,1.7,2.69,2.69,0,0,1-1.3.85,5,5,0,0,1-1.7.35q-1.8,0-1.9-1.45-.2-3.56,6.16-18.24,6-14,7.22-14.78a7.48,7.48,0,0,1,4.16-1.2,3.84,3.84,0,0,1,3.06,1.1q2.25,2.51,6,12.58Q111.69,28.66,112.15,32.42ZM102,20.75q-1.4-4-3.56-9.37Q96.91,13.73,93.4,22.9A34.38,34.38,0,0,1,102,20.75Z" fill="#283272"/>
        <path d="M146.17,14.28q.25,2.25-4.61,6a34.61,34.61,0,0,1-11.78,5.91q4.66,2.76,4.91,4.71.4,3.51-3.91,6a15.49,15.49,0,0,1-8,2.21h-.45a4.58,4.58,0,0,1-2.66-1.4,6.63,6.63,0,0,1-1.65-2.3,25.36,25.36,0,0,1-.9-4.61,93.5,93.5,0,0,1-.65-12q0-10,.93-10.85t5.14-1.33a67.47,67.47,0,0,1,8.12-.45q7.47,0,9.87,1.25a11.63,11.63,0,0,1,3.61,3.08A8,8,0,0,1,146.17,14.28Zm-7-2.05q-.15-.85-1.9-1-.7-.1-4.21-.1a72.41,72.41,0,0,0-10.22.85q-.2,3.16.1,10.62a28.91,28.91,0,0,0,10.77-4.66Q139.46,14.13,139.15,12.23Zm-11.47,19q-.1-.5-1.55-1.45a7.59,7.59,0,0,0-3.21-1.3q.15,2,.35,3.76a13.51,13.51,0,0,1,0,1.9l-.1.25a7.2,7.2,0,0,0,3.18-1.1Q127.83,32.37,127.68,31.27Z" fill="#283272"/>
        <path d="M158.15,21.15a64.8,64.8,0,0,1-.4,7.52q-.45,3.86-1.2,4.41a1.92,1.92,0,0,1-1.15.4,2.82,2.82,0,0,1-1.9-1.2,7.55,7.55,0,0,1-1.35-2q-1.05-2.3-1.05-11.42,0-4.46.43-5.29t2.13-.83q3,0,3.81,1.85Q158.15,16.19,158.15,21.15Z" fill="#283272"/>
        <path d="M184.9,35.73a1.65,1.65,0,0,1-.4,1.2q-.8,1.1-5.56,3.31a35.6,35.6,0,0,1-6.51,2.56,1.36,1.36,0,0,0-.3,0h-.35a8.23,8.23,0,0,1-4.36-1.9,3,3,0,0,1-.8-2.05,210.35,210.35,0,0,1-.85-22.55q0-9.17.6-11.53a1.85,1.85,0,0,1,2.05-1.45,3.87,3.87,0,0,1,3.26,1.85q.5.75.5,5,0,1.8-.08,7.12T172,25.51a88.54,88.54,0,0,0,.4,9.82,5.71,5.71,0,0,0,.15,1.1,83.45,83.45,0,0,0,8.12-2.61,3.18,3.18,0,0,1,1.1-.25,3.78,3.78,0,0,1,1.85.5A2.21,2.21,0,0,1,184.9,35.73Z" fill="#283272"/>
        <path d="M192.67,21.15a64.8,64.8,0,0,1-.4,7.52q-.45,3.86-1.2,4.41a1.92,1.92,0,0,1-1.15.4,2.82,2.82,0,0,1-1.9-1.2,7.55,7.55,0,0,1-1.35-2q-1.05-2.3-1.05-11.42,0-4.46.43-5.29t2.13-.83q3,0,3.81,1.85Q192.67,16.19,192.67,21.15Z" fill="#283272"/>
        <path d="M220.63,2.3a1.55,1.55,0,0,1-1,1.7,11.46,11.46,0,0,1-1.8.5q-1.65.35-6.62,1.2a7.44,7.44,0,0,0-1.35.35q-.35.65-1.15,29.21-.15,5.51-.25,6-.25,1.05-2,1.05a4.67,4.67,0,0,1-2.81-1,3.52,3.52,0,0,1-1.5-2.46,92.56,92.56,0,0,1-.1-15.79q.55-8,1.15-16a29,29,0,0,1-5.61,1,5.91,5.91,0,0,1-3.08-1.05,3.39,3.39,0,0,1-1.83-2.2q-.15-1.3,1.6-1.6,1.35-.15,2.71-.25l9.62-2a52.07,52.07,0,0,1,10.82-1,3.5,3.5,0,0,1,2,.65A2.4,2.4,0,0,1,220.63,2.3Z" fill="#283272"/>
        <path d="M225.74,21.15a64.8,64.8,0,0,1-.4,7.52q-.45,3.86-1.2,4.41a1.92,1.92,0,0,1-1.15.4,2.82,2.82,0,0,1-1.9-1.2,7.55,7.55,0,0,1-1.35-2q-1.05-2.3-1.05-11.42,0-4.46.43-5.29t2.13-.83q3,0,3.81,1.85Q225.74,16.19,225.74,21.15Z" fill="#283272"/>
        <path d="M252.75,6q0,1.05-4.76,2.15l-6.16,1.2q-1.05.2-2.41.55-.45,5.36-1.3,14.28,1.45-.5,3-1a11.91,11.91,0,0,1,3.06-.5,9,9,0,0,1,4.41,1.1q2,1,2.1,1.9a2.36,2.36,0,0,1-1.3,1.75,4.49,4.49,0,0,1-2.41.8h-.45a17,17,0,0,0-4.06.8q-2.1.6-4.16,1.25.15,1,.35,3.51,0,.4.15,1.05.3,0,2.46-.65a16.79,16.79,0,0,1,4-.75,10.86,10.86,0,0,1,3.63.88q2.28.88,2.38,1.58.2,1.35-3.81,2.76-1.15.45-5.21,1.5-3.46.9-3.81.9a4,4,0,0,1-3.26-1.5q-2-2.45-2.61-7.82a76.58,76.58,0,0,1,0-15q.3-3.51.85-8.12-.25-.65-.65-2-.2-1.65,1.35-1.85.9-.15,6.26-1.3a32.29,32.29,0,0,1,6.26-.85,9.59,9.59,0,0,1,3.46.9Q252.65,4.66,252.75,6Z" fill="#283272"/>
        <path d="M286.28,12.08q0,.65-1,1.28a4,4,0,0,1-2.05.63,2.4,2.4,0,0,1-1.25-.3,4.63,4.63,0,0,0-2.21-.4q-4.51,0-11.83,2.61-7,2.51-9.07,4.61a16.68,16.68,0,0,0,1.9.45q12.33,2.55,14,3.56a7.69,7.69,0,0,1,1.9,1.8,5.81,5.81,0,0,1,1.4,2.86,2,2,0,0,1-.8,2.05,29.8,29.8,0,0,1-5.91,3q-4.76,2.06-6.26,2.05a8.52,8.52,0,0,1-3.51-.9q-2.1-.9-2.21-1.85a1.25,1.25,0,0,1,.25-.85q.55-.85,6.16-2.46,5.46-1.55,5.56-2.1a.8.8,0,0,1-.25,0,10.2,10.2,0,0,1-1.25-.25l-8.12-1.7q-5.46-1.35-7.37-3.31a4.82,4.82,0,0,1-1.1-2.71q-.3-2.76,1-4,2.3-2.15,9.37-4.86A41.83,41.83,0,0,1,278.31,8a9.65,9.65,0,0,1,7.62,3.31A1.41,1.41,0,0,1,286.28,12.08Z" fill="#283272"/>
      </g>
    </g>
  </g>
</svg>
