<svg xmlns="http://www.w3.org/2000/svg" viewBox="0 0 361 295.93" width="361" height="295.93">
  <title>Medsafe</title>
  <path d="M.5,220.51H55.19l-3.61,7H.5v-7Zm304.83,0H360.5v7H308.94l-3.61-7Zm-5.65-11H360.5v6.8H303.19l-3.51-6.8ZM.5,209.55H60.84l-3.51,6.8H.5v-6.8ZM294,198.6H360.5v6.6H297.43L294,198.6ZM.5,198.6h66l-3.41,6.6H.5v-6.6Zm287.87-11H360.5V194H291.67l-3.3-6.4ZM.5,187.64H72.15l-3.3,6.4H.5v-6.4Zm282.22-11H360.5v6.2H285.92l-3.2-6.2ZM.5,176.69H77.8l-3.2,6.2H.5v-6.2Zm276.57-11H360.5v6H280.16l-3.1-6ZM.5,165.73h83l-3.1,6H.5v-6Zm270.91-11H360.5v5.8H274.41l-3-5.8ZM.5,154.78H89.1l-3,5.8H.5v-5.8Zm265.26-11H360.5v5.6H268.65l-2.89-5.6ZM.5,143.82H94.76l-2.89,5.6H.5v-5.6Zm259.61-11H360.5v5.4H262.89l-2.79-5.4ZM.5,132.86h99.91l-2.79,5.4H.5v-5.4Zm253.9-11.06H360.5v5.4H257.19l-2.79-5.4Zm-253.9,0H106.11l-2.79,5.4H.5v-5.4Zm248.25-11H360.5v5.2H251.43l-2.68-5.2ZM.5,110.85H111.77l-2.68,5.2H.5v-5.2Zm242.6-11H360.5v5H245.68l-2.58-5ZM.5,99.9H117.42l-2.58,5H.5v-5Zm236.94-11H360.5v4.8H239.92l-2.48-4.8ZM.5,88.94H123.07l-2.48,4.8H.5v-4.8ZM231.79,78H360.5v4.6H234.17L231.79,78ZM.5,78H128.73l-2.37,4.6H.5V78ZM226.14,67H360.5v4.4H228.41L226.14,67ZM.5,67H134.38l-2.27,4.4H.5V67Zm220-11h140v4.2H222.65l-2.17-4.2Zm-220,0H140l-2.17,4.2H.5v-4.2Zm214.33-11H360.5v4H216.9l-2.06-4ZM.5,45.12H145.68l-2.06,4H.5v-4Zm208.68-11H360.5V38H211.14l-2-3.8ZM.5,34.16H151.34l-2,3.8H.5v-3.8Zm203-11h157v3.6H205.38l-1.86-3.6Zm-203,0H157l-1.86,3.6H.5v-3.6Zm197.37-11H360.5v3.4H199.63l-1.75-3.4ZM.5,12.25H162.64l-1.75,3.4H.5v-3.4Zm191.72-11H360.5V4.5H193.87l-1.65-3.2ZM.5,1.3H168.3l-1.65,3.2H.5V1.3Z" fill="#708085"/>
  <path d="M.5,220.51H55.19l-3.61,7H.5v-7Zm304.83,0H360.5v7H308.94l-3.61-7Zm-5.65-11H360.5v6.8H303.19l-3.51-6.8ZM.5,209.55H60.84l-3.51,6.8H.5v-6.8ZM294,198.6H360.5v6.6H297.43L294,198.6ZM.5,198.6h66l-3.41,6.6H.5v-6.6Zm287.87-11H360.5V194H291.67l-3.3-6.4ZM.5,187.64H72.15l-3.3,6.4H.5v-6.4Zm282.22-11H360.5v6.2H285.92l-3.2-6.2ZM.5,176.69H77.8l-3.2,6.2H.5v-6.2Zm276.57-11H360.5v6H280.16l-3.1-6ZM.5,165.73h83l-3.1,6H.5v-6Zm270.91-11H360.5v5.8H274.41l-3-5.8ZM.5,154.78H89.1l-3,5.8H.5v-5.8Zm265.26-11H360.5v5.6H268.65l-2.89-5.6ZM.5,143.82H94.76l-2.89,5.6H.5v-5.6Zm259.61-11H360.5v5.4H262.89l-2.79-5.4ZM.5,132.86h99.91l-2.79,5.4H.5v-5.4Zm253.9-11.06H360.5v5.4H257.19l-2.79-5.4Zm-253.9,0H106.11l-2.79,5.4H.5v-5.4Zm248.25-11H360.5v5.2H251.43l-2.68-5.2ZM.5,110.85H111.77l-2.68,5.2H.5v-5.2Zm242.6-11H360.5v5H245.68l-2.58-5ZM.5,99.9H117.42l-2.58,5H.5v-5Zm236.94-11H360.5v4.8H239.92l-2.48-4.8ZM.5,88.94H123.07l-2.48,4.8H.5v-4.8ZM231.79,78H360.5v4.6H234.17L231.79,78ZM.5,78H128.73l-2.37,4.6H.5V78ZM226.14,67H360.5v4.4H228.41L226.14,67ZM.5,67H134.38l-2.27,4.4H.5V67Zm220-11h140v4.2H222.65l-2.17-4.2Zm-220,0H140l-2.17,4.2H.5v-4.2Zm214.33-11H360.5v4H216.9l-2.06-4ZM.5,45.12H145.68l-2.06,4H.5v-4Zm208.68-11H360.5V38H211.14l-2-3.8ZM.5,34.16H151.34l-2,3.8H.5v-3.8Zm203-11h157v3.6H205.38l-1.86-3.6Zm-203,0H157l-1.86,3.6H.5v-3.6Zm197.37-11H360.5v3.4H199.63l-1.75-3.4ZM.5,12.25H162.64l-1.75,3.4H.5v-3.4Zm191.72-11H360.5V4.5H193.87l-1.65-3.2ZM.5,1.3H168.3l-1.65,3.2H.5V1.3Z" fill="none" stroke="#708085" stroke-miterlimit="3.86"/>
  <polygon points="296.5 227.51 64.1 227.51 180.93 1.09 296.5 227.51 296.5 227.51" fill="#004280" stroke="#004280" stroke-miterlimit="3.86"/>
  <path d="M.5,292.91q4.37,0,5.68-1.53a6.87,6.87,0,0,0,1.31-4.56v-36.3q0-3.14-1.49-4.11T.69,245.1v-1.94H20L35,278.56h.64l15-35.41H69.89v1.94q-3.88.3-5.3,1.46t-1.42,5.56v33.8q0,4.22,1.42,5.53t5.3,1.46v1.94H44.5v-1.94a11.06,11.06,0,0,0,5.12-1.12q1.72-1,1.72-4.52V249.88h-.56L32,294.85H30L11,250.78H10.7V285.4q0,3.81,1.42,5.56t6.27,1.94v1.94H.5v-1.94Z" fill="#004280"/>
  <path d="M72.88,294.85v-1.94a10.84,10.84,0,0,0,4.67-.9q2.13-1.19,2.13-4.48v-37q0-3.36-2.2-4.52a11.72,11.72,0,0,0-4.59-.9v-1.94H117v15.43h-1.87q-1.46-7.4-5-10.12t-12.7-2.73q-3.51,0-4.48.75T92,249.36v17.7q6.54.08,8.85-2.35t3.55-9h1.94v25.85H104.4q-.82-6.54-3.36-9.19t-9-2.69v18.53q0,2.43,1.23,3.32t5.15.86q7.32,0,12-2.84t8.22-10.64h2.13l-3.1,15.91Z" fill="#004280"/>
  <path d="M121.65,292.91a11.62,11.62,0,0,0,4.15-.82,4.32,4.32,0,0,0,2.24-4.22V250.14a4.27,4.27,0,0,0-2.13-4.11,11.81,11.81,0,0,0-4.26-.93v-1.94H145q14.15,0,21.59,7.54,6.76,6.87,6.76,18.45a24.69,24.69,0,0,1-6.8,17.59q-7.66,8.11-20.77,8.11H121.65v-1.94Zm21.67-1.72q.78,1,3.29,1a14.46,14.46,0,0,0,11.17-4.78q4.37-4.82,4.37-18.45a37.17,37.17,0,0,0-2.35-13.93q-3.81-9.37-12.85-9.37-3,0-3.88,1.27a5.83,5.83,0,0,0-.6,3.18v37.65a6.52,6.52,0,0,0,.86,3.4Z" fill="#004280" fill-rule="evenodd"/>
  <path d="M176.43,277h2.2q1.87,8.55,6,12.44a13.66,13.66,0,0,0,9.56,3.88q5.23,0,7.43-2.65a8.8,8.8,0,0,0,2.2-5.64,7.33,7.33,0,0,0-2.32-5.6,28.87,28.87,0,0,0-6.16-3.7l-5-2.46Q183,269.6,180,266a13.26,13.26,0,0,1-3-8.85,16.16,16.16,0,0,1,4-10.46q4-4.85,12.33-4.85a26.23,26.23,0,0,1,8.14,1.27,30.82,30.82,0,0,0,4.52,1.27,2,2,0,0,0,1.76-.71,6.45,6.45,0,0,0,.78-1.94h2.28V258.4h-2.13a23.09,23.09,0,0,0-5.42-10,12.27,12.27,0,0,0-9.37-4.18,8.67,8.67,0,0,0-6.16,2.13,7.44,7.44,0,0,0-.11,10.53q2.09,1.83,9.3,5.38l5.75,2.84a22.61,22.61,0,0,1,6.13,4.22A14.47,14.47,0,0,1,213,279.87q0,5.79-4.59,10.94t-14.64,5.12a25.5,25.5,0,0,1-4.71-.45,24.61,24.61,0,0,1-4.67-1.31l-1.49-.56a8.45,8.45,0,0,0-1-.22,3.81,3.81,0,0,0-.82-.11,1.79,1.79,0,0,0-1.64.71,6.6,6.6,0,0,0-.78,1.94h-2.2V277Z" fill="#004280"/>
  <path d="M239.29,276.81,232,259.11h-.63l-6.91,17.7Zm-28.81,16.1a5.75,5.75,0,0,0,4.45-2.5A35,35,0,0,0,218,284l17-41.87h2.13l17.07,40.19a55.34,55.34,0,0,0,4.3,8.74,4.52,4.52,0,0,0,4,1.87v1.94H237.79v-1.94a17.2,17.2,0,0,0,4.89-.63q1.19-.48,1.2-2.46a9.89,9.89,0,0,0-.6-2.73q-.37-1.08-1-2.61l-1.94-4.63H223.14q-1.68,4.56-2.17,5.94a15.27,15.27,0,0,0-1,4.29q0,1.64,2.2,2.39a14.64,14.64,0,0,0,3.92.45v1.94H210.48v-1.94Z" fill="#004280" fill-rule="evenodd"/>
  <path d="M265.57,292.91a10.84,10.84,0,0,0,4.67-.9q2.13-1.19,2.13-4.48v-37q0-3.32-2.09-4.48a12.4,12.4,0,0,0-4.71-.93v-1.94h43.36v15.43h-1.87q-1.42-7.13-4.78-10t-12.4-2.88q-3.36,0-4.29.79a3.58,3.58,0,0,0-.9,2.84v17.7q6.2.11,8.37-2.61t3.32-8.7h1.94v25.85h-1.94q-.79-6.2-3.17-9t-8.52-2.84v17.82q0,3.55,2.05,4.52a15.63,15.63,0,0,0,6.35.86v1.94H265.57v-1.94Z" fill="#004280"/>
  <path d="M312.3,294.85v-1.94A10.84,10.84,0,0,0,317,292q2.13-1.19,2.13-4.48v-37q0-3.36-2.2-4.52a11.72,11.72,0,0,0-4.59-.9v-1.94h44.07v15.43H354.5q-1.46-7.4-5-10.12t-12.7-2.73q-3.51,0-4.48.75t-.93,2.87v17.7q6.53.08,8.85-2.35t3.55-9h1.94v25.85h-1.94q-.82-6.54-3.36-9.19t-9-2.69v18.53q0,2.43,1.23,3.32t5.15.86q7.32,0,12-2.84T358,278.94h2.13L357,294.85Z" fill="#004280"/>
</svg>
