<svg xmlns="http://www.w3.org/2000/svg" viewBox="0 0 611.91 219.46" width="611.91" height="219.46">
  <title>Quad City Safety</title>
  <g id="brandmark">
    <polygon points="5.07 65.83 65.83 5.07 77.36 16.89 93.83 0 93.83 93.83 0 93.83 16.89 77.36 5.07 65.83" fill="#f05a28"/>
    <polygon points="214.39 153.63 153.63 214.39 142.1 202.57 125.63 219.46 125.63 125.63 219.46 125.63 202.57 142.09 214.39 153.63" fill="#f05a28"/>
    <polygon points="65.83 214.39 5.07 153.63 16.89 142.1 0 125.63 93.83 125.63 93.83 219.46 77.36 202.57 65.83 214.39" fill="#f05a28"/>
    <polygon points="153.63 5.07 214.39 65.83 202.57 77.37 219.46 93.83 125.63 93.83 125.63 0 142.1 16.89 153.63 5.07" fill="#f05a28"/>
  </g>
  <g id="text">
    <path d="M293,91.48v7.86H280.22a20.54,20.54,0,0,1-6.5-.71,4.32,4.32,0,0,1-2.55-2.11,13.16,13.16,0,0,1-.66-5,17.86,17.86,0,0,1-9.87-3,13.35,13.35,0,0,1-5.46-7.24q-1.32-4.39-1.32-13.14V48a49,49,0,0,1,.78-10.09,16.12,16.12,0,0,1,3.23-6.54,15.21,15.21,0,0,1,6.3-4.63,22.51,22.51,0,0,1,8.55-1.56,25.11,25.11,0,0,1,10.09,1.92,15.15,15.15,0,0,1,9.47,11.05,50.36,50.36,0,0,1,.66,9.49v21.1q0,8.66-.84,11.75a9,9,0,0,1-3.23,4.91,17,17,0,0,1-6.36,2.79q.12,2.18.9,2.75t3.71.56ZM276,43.21a20.14,20.14,0,0,0-.5-5.8,2,2,0,0,0-2.07-1.26,2.31,2.31,0,0,0-2,1q-.7,1-.7,6V73.54q0,5.66.46,7a2,2,0,0,0,2.15,1.32,2.08,2.08,0,0,0,2.21-1.53,32.14,32.14,0,0,0,.48-7.26Z" fill="#231f20"/>
    <path d="M335.87,38.24V91.48H319.38l.28-4.42a11.28,11.28,0,0,1-4.15,4,11.67,11.67,0,0,1-5.68,1.35,12.77,12.77,0,0,1-6.06-1.28,8.34,8.34,0,0,1-3.55-3.41,12.45,12.45,0,0,1-1.42-4.43q-.28-2.31-.28-9.17V38.24h16.21V74.47q0,6.22.38,7.38T317.17,83q1.8,0,2.15-1.2a46.26,46.26,0,0,0,.34-7.74V38.24Z" fill="#231f20"/>
    <path d="M356.17,58.86H341V55.29q0-6.18,1.42-9.53a13.21,13.21,0,0,1,5.72-5.92q4.29-2.57,11.15-2.57,8.23,0,12.4,2.91a11.34,11.34,0,0,1,5,7.14q.84,4.23.84,17.43V91.48H361.75V86.74a9.89,9.89,0,0,1-9.43,5.71,13.69,13.69,0,0,1-7.8-2.39Q341,87.67,341,79.6V75.23q0-6,1.89-8.15T352.2,62q8-3.13,8.55-4.21a11.19,11.19,0,0,0,.56-4.41q0-4.17-.62-5.44a2.14,2.14,0,0,0-2.07-1.26q-1.65,0-2,1.06a21.62,21.62,0,0,0-.4,5.52Zm5.13,7.3q-3.89,2.85-4.51,4.77a19,19,0,0,0-.62,5.54,16.16,16.16,0,0,0,.54,5.34,2.12,2.12,0,0,0,2.15,1.2,2,2,0,0,0,2-.94q.46-.94.46-5Z" fill="#231f20"/>
    <path d="M420,26.52v65H403.75V87.62a16.75,16.75,0,0,1-4.9,3.62,12.5,12.5,0,0,1-5.38,1.21,10.92,10.92,0,0,1-6.54-2,8.84,8.84,0,0,1-3.55-4.59,32.73,32.73,0,0,1-.78-8.51V52.44a33.54,33.54,0,0,1,.78-8.71A8.65,8.65,0,0,1,387,39.22a11.47,11.47,0,0,1,6.7-1.95,13.25,13.25,0,0,1,10.07,4.34V26.52ZM403.75,51.64a10.14,10.14,0,0,0-.5-3.93,2.51,2.51,0,0,0-3.93-.1,10,10,0,0,0-.5,4V77.72A12,12,0,0,0,399.3,82a1.84,1.84,0,0,0,1.85,1,2.06,2.06,0,0,0,2.09-1.14q.52-1.14.52-5.6Z" fill="#231f20"/>
    <path d="M480.19,54.81H463.29V43.52q0-4.92-.54-6.15a2.33,2.33,0,0,0-2.39-1.22,2.49,2.49,0,0,0-2.65,1.48q-.56,1.49-.56,6.42V74.23a21,21,0,0,0,.56,6.18,2.4,2.4,0,0,0,2.53,1.44,2.37,2.37,0,0,0,2.47-1.45q.58-1.45.58-6.8V65.44h16.89V68q0,10.09-1.42,14.3t-6.3,7.39a21.57,21.57,0,0,1-12,3.17q-7.42,0-12.24-2.69a13.07,13.07,0,0,1-6.38-7.44q-1.56-4.75-1.56-14.3v-19a84.33,84.33,0,0,1,.48-10.53,14.75,14.75,0,0,1,2.87-6.76A16,16,0,0,1,450.24,27,23.9,23.9,0,0,1,460,25.16q7.46,0,12.32,2.88a13.84,13.84,0,0,1,6.38,7.19q1.53,4.31,1.52,13.4Z" fill="#231f20"/>
    <path d="M502.45,26.52V35H485.76V26.52Zm0,11.72V91.48H485.76V38.24Z" fill="#231f20"/>
    <path d="M525.36,31.14v8.39h4.37v8.43h-4.37V76.43q0,5.26.54,5.86t4.51.6v8.59h-6.54A46.77,46.77,0,0,1,516,91a8.42,8.42,0,0,1-4.17-2.13,7.06,7.06,0,0,1-2.25-3.81A67.47,67.47,0,0,1,509.11,75v-27h-3.49V39.52h3.49V31.14Z" fill="#231f20"/>
    <path d="M568.88,38.24l-4.63,38.52q-1.1,9.15-1.84,12.48a13.36,13.36,0,0,1-2.47,5.5,10,10,0,0,1-4.79,3.19q-3.07,1-9.81,1h-9.83V90.44a18.7,18.7,0,0,0,4.86-.38,1.61,1.61,0,0,0,1.09-1.71q0-.64-1-5.58l-8.88-44.54H546.3l5.33,35.95,2.6-35.95Z" fill="#231f20"/>
    <path d="M290.13,136.27H274.44v-4.81q0-3.37-.6-4.29a2.21,2.21,0,0,0-2-.92,2.55,2.55,0,0,0-2.31,1.25,7.22,7.22,0,0,0-.78,3.77,10.7,10.7,0,0,0,.88,4.9q.84,1.65,4.77,4,11.28,6.69,14.21,11T291.53,165q0,6.94-1.62,10.23t-6.28,5.52a24.84,24.84,0,0,1-10.83,2.23,24.22,24.22,0,0,1-11.58-2.57q-4.79-2.57-6.28-6.54t-1.48-11.27V158.3h15.69v7.9q0,3.65.66,4.69a2.56,2.56,0,0,0,2.35,1,2.75,2.75,0,0,0,2.51-1.32,7.56,7.56,0,0,0,.82-3.93q0-5.74-1.56-7.5t-7.9-5.9a77.61,77.61,0,0,1-8.35-6.06,14.17,14.17,0,0,1-3.39-5.22,22.94,22.94,0,0,1-1.34-8.51q0-7.46,1.91-10.91a12.83,12.83,0,0,1,6.16-5.4,24.57,24.57,0,0,1,10.27-1.95,26.77,26.77,0,0,1,11.21,2.13q4.63,2.13,6.14,5.36t1.5,11Z" fill="#231f20"/>
    <path d="M310.83,148.95H295.63v-3.57q0-6.18,1.42-9.53a13.21,13.21,0,0,1,5.72-5.92q4.29-2.57,11.15-2.57,8.23,0,12.4,2.91a11.34,11.34,0,0,1,5,7.14q.84,4.23.84,17.43v26.72H316.41v-4.74a9.89,9.89,0,0,1-9.43,5.71,13.69,13.69,0,0,1-7.8-2.39q-3.55-2.39-3.55-10.45v-4.37q0-6,1.89-8.15t9.35-5.05q8-3.13,8.55-4.21a11.19,11.19,0,0,0,.56-4.41q0-4.17-.62-5.44a2.14,2.14,0,0,0-2.07-1.26q-1.65,0-2,1.06a21.62,21.62,0,0,0-.4,5.52Zm5.13,7.3q-3.89,2.85-4.51,4.77a19,19,0,0,0-.62,5.54,16.16,16.16,0,0,0,.54,5.34,2.12,2.12,0,0,0,2.15,1.2,2,2,0,0,0,2-.94q.46-.94.46-5Z" fill="#231f20"/>
    <path d="M358.42,116.61v8.23q-5,0-5.92.46t-.9,2.63v1.69h6.82V138h-3.85v43.53H338.35V138H335v-8.43h3.33a43.13,43.13,0,0,1,.36-7,6,6,0,0,1,1.79-3.15,9.19,9.19,0,0,1,4-2.11,32.08,32.08,0,0,1,8-.72Z" fill="#231f20"/>
    <path d="M398.22,155.89h-21v11.51a12.79,12.79,0,0,0,.52,4.65,2,2,0,0,0,2,1,2.43,2.43,0,0,0,2.47-1.38,15.14,15.14,0,0,0,.62-5.36v-7h15.37v3.93a35.25,35.25,0,0,1-.62,7.58,15.44,15.44,0,0,1-2.91,5.66,14.15,14.15,0,0,1-5.8,4.51,22.44,22.44,0,0,1-8.81,1.5A25.58,25.58,0,0,1,371,181,14.51,14.51,0,0,1,364.9,177a14.71,14.71,0,0,1-3-5.7,36.79,36.79,0,0,1-.84-9V146.7q0-7,1.89-11a13,13,0,0,1,6.18-6.18,21.79,21.79,0,0,1,9.87-2.15A22.08,22.08,0,0,1,390.21,130a14.24,14.24,0,0,1,6.22,6.86q1.79,4.27,1.79,12ZM382,147.22v-3.89a19.62,19.62,0,0,0-.44-5.34,1.74,1.74,0,0,0-1.81-1.2q-1.68,0-2.09,1a21.3,21.3,0,0,0-.4,5.52v3.89Z" fill="#231f20"/>
    <path d="M420.6,121.22v8.39H425V138H420.6v28.49q0,5.26.54,5.86t4.51.6v8.59h-6.54a46.75,46.75,0,0,1-7.9-.46A8.42,8.42,0,0,1,407,179a7.06,7.06,0,0,1-2.25-3.81,67.48,67.48,0,0,1-.44-10.09V138h-3.49v-8.43h3.49v-8.39Z" fill="#231f20"/>
    <path d="M464.13,128.33l-4.63,38.52q-1.1,9.15-1.84,12.48a13.36,13.36,0,0,1-2.47,5.5,10,10,0,0,1-4.79,3.19q-3.07,1-9.81,1h-9.83v-8.51a18.7,18.7,0,0,0,4.86-.38,1.61,1.61,0,0,0,1.08-1.71q0-.64-1-5.58l-8.88-44.54h14.71l5.33,35.95,2.6-35.95Z" fill="#231f20"/>
    <path d="M475,168.85v5.82a22,22,0,0,1-1.08,7.5,11,11,0,0,1-3.75,5,14.52,14.52,0,0,1-6,2.73v-4.65a4.94,4.94,0,0,0,2.73-3.65H464.1V168.85Z" fill="#231f20"/>
    <path d="M511.2,116.61v65H494.31v-65Z" fill="#231f20"/>
    <path d="M534,128.33l-.28,4.91a12.15,12.15,0,0,1,4.31-4.4,11.57,11.57,0,0,1,5.88-1.47,11.15,11.15,0,0,1,6.82,2,8.74,8.74,0,0,1,3.41,5,45.33,45.33,0,0,1,.76,10v37.31H538.68V144.7a34.33,34.33,0,0,0-.36-6.7q-.36-1.2-2-1.2a2,2,0,0,0-2.17,1.38q-.44,1.38-.44,7.4v36H517.5V128.33Z" fill="#231f20"/>
    <path d="M596.3,148.43H581v-6.14a12.05,12.05,0,0,0-.52-4.35,1.93,1.93,0,0,0-1.93-1.14,1.89,1.89,0,0,0-1.89,1,12.87,12.87,0,0,0-.48,4.49v25.12a9.8,9.8,0,0,0,.72,4.27A2.29,2.29,0,0,0,579,173.1a2.19,2.19,0,0,0,2.23-1.48,17.87,17.87,0,0,0,.58-5.62v-6.34H596.3a83.58,83.58,0,0,1-.46,9.57,15.32,15.32,0,0,1-2.69,6.54,14.36,14.36,0,0,1-5.92,5.06,21.29,21.29,0,0,1-9,1.71q-6.86,0-10.87-2.35a12.92,12.92,0,0,1-5.68-6.58q-1.67-4.23-1.67-12V146.46q0-6.78,1.36-10.23t5.82-6.16A20.48,20.48,0,0,1,578,127.36a20.73,20.73,0,0,1,10.83,2.69,13.19,13.19,0,0,1,6,6.78Q596.3,140.92,596.3,148.43Z" fill="#231f20"/>
    <path d="M611.91,168.33v13.24H599.67V168.33Z" fill="#231f20"/>
  </g>
</svg>
