<svg xmlns="http://www.w3.org/2000/svg" viewBox="0 0 64.69 18.66" width="64.69" height="18.66">
  <title>sms</title>
  <path id="SMS" d="M21.81,2.68c0,.29-.2.57-.66.84a2.64,2.64,0,0,1-1.36.41,1.58,1.58,0,0,1-.83-.2,3.06,3.06,0,0,0-1.46-.26A24.6,24.6,0,0,0,9.73,5.19q-4.67,1.66-6,3A11.23,11.23,0,0,0,5,8.54q8.14,1.69,9.26,2.35a5,5,0,0,1,1.26,1.19,3.74,3.74,0,0,1,1,1.89,1.34,1.34,0,0,1-.56,1.36,19.7,19.7,0,0,1-3.9,2,14.14,14.14,0,0,1-4.14,1.36,5.62,5.62,0,0,1-2.31-.6q-1.39-.6-1.46-1.22a.83.83,0,0,1,.17-.56q.37-.56,4.4-1.62t4-1.39l-.17,0a6.56,6.56,0,0,1-.83-.17L6,11.95Q2,11,.77,9.76A3.19,3.19,0,0,1,0,8,3.05,3.05,0,0,1,.7,5.33Q2.22,3.9,6.89,2.12A27.68,27.68,0,0,1,16.58,0a6.27,6.27,0,0,1,5,2.18A.94.94,0,0,1,21.81,2.68ZM42,13.73a2.41,2.41,0,0,1,0,.73q-.13.59-1.06,1.06a3.3,3.3,0,0,1-1.46.4q-2,0-3.21-5.46a58.91,58.91,0,0,0-4.33,4.73,2,2,0,0,1-1.65.6A3.31,3.31,0,0,1,27.73,15q-.47-.5-1.42-5.66-.93,1.36-4.24,6.78a1.65,1.65,0,0,1-1.52.6,2.24,2.24,0,0,1-1.14-.3,1,1,0,0,1-.55-.76Q18.76,15,22,9.23,25.12,3.8,25.78,3a3.21,3.21,0,0,1,2.55-1.36,1.41,1.41,0,0,1,1.49,1.06,15.51,15.51,0,0,1,.33,1.62q.43,3,.46,3.08a22.33,22.33,0,0,0,.66,3.11q3.14-2.81,3.87-3.57a5.14,5.14,0,0,1,1.49-1,4,4,0,0,1,1.66-.43,1.56,1.56,0,0,1,.86.23q.5.33,1.56,3.41A26.67,26.67,0,0,1,42,13.73ZM64.69,2.68c0,.29-.2.57-.66.84a2.64,2.64,0,0,1-1.36.41,1.58,1.58,0,0,1-.83-.2,3.06,3.06,0,0,0-1.46-.26,24.6,24.6,0,0,0-7.78,1.72q-4.66,1.66-6,3a11.31,11.31,0,0,0,1.26.3q8.14,1.69,9.26,2.35a5,5,0,0,1,1.26,1.19,3.75,3.75,0,0,1,1,1.89,1.34,1.34,0,0,1-.56,1.36,19.73,19.73,0,0,1-3.9,2,14.17,14.17,0,0,1-4.14,1.36,5.62,5.62,0,0,1-2.32-.6Q47,17.47,47,16.84a.82.82,0,0,1,.16-.56q.36-.56,4.4-1.62t4-1.39l-.17,0a6.52,6.52,0,0,1-.83-.17l-5.69-1.12q-4-.93-5.19-2.18A3.19,3.19,0,0,1,42.92,8a3.05,3.05,0,0,1,.66-2.65Q45.1,3.9,49.77,2.12A27.68,27.68,0,0,1,59.46,0a6.27,6.27,0,0,1,5,2.18A1,1,0,0,1,64.69,2.68Z" fill="#fff"/>
</svg>
